PathFileType	4	(X/Y/Z)	C:\Users\Basilio\Documents\Thesis Gigler\squatting_fais\c3dfiles\040\SLS_pre_front4\markers_experimental.trc
DataRate	CameraRate	NumFrames	NumMarkers	Units	OrigDataRate	OrigDataStartFrame	OrigNumFrames
200.000000	200.000000	4	62	mm	200.000000	171	1372
Frame#	Time	FHD			LBHD			RBHD			C7			T10			CLAV			LSHO			LUUPA			LMUPA			LDUPA			LLEP			LMEP			LRAD			LUL			LRFIN			RSHO			RUPA1			RMUPA			RDUPA			RLEP			RMEP			RRAD			RUL			RUFIN			LASI			RASI			USACR			LSACR			RSACR			LTHI1			LTHI2			LTHI3			LTHI4			LLFC			LMFC			LTIB1			LTIB2			LTIB3			LTIB4			LLMAL			LMMAL			LHEE			LMT1			LMT2			LMT5			RTHI			RTHI2			RTHI3			RTHI4			RLFC			RMFC			RTIB1			RTIB2			RTIB3			RTIB4			RLMAL			RMMAL			RHEE			RMT1			RMT2			RMT5			*61			
		X1	Y1	Z1	X2	Y2	Z2	X3	Y3	Z3	X4	Y4	Z4	X5	Y5	Z5	X6	Y6	Z6	X7	Y7	Z7	X8	Y8	Z8	X9	Y9	Z9	X10	Y10	Z10	X11	Y11	Z11	X12	Y12	Z12	X13	Y13	Z13	X14	Y14	Z14	X15	Y15	Z15	X16	Y16	Z16	X17	Y17	Z17	X18	Y18	Z18	X19	Y19	Z19	X20	Y20	Z20	X21	Y21	Z21	X22	Y22	Z22	X23	Y23	Z23	X24	Y24	Z24	X25	Y25	Z25	X26	Y26	Z26	X27	Y27	Z27	X28	Y28	Z28	X29	Y29	Z29	X30	Y30	Z30	X31	Y31	Z31	X32	Y32	Z32	X33	Y33	Z33	X34	Y34	Z34	X35	Y35	Z35	X36	Y36	Z36	X37	Y37	Z37	X38	Y38	Z38	X39	Y39	Z39	X40	Y40	Z40	X41	Y41	Z41	X42	Y42	Z42	X43	Y43	Z43	X44	Y44	Z44	X45	Y45	Z45	X46	Y46	Z46	X47	Y47	Z47	X48	Y48	Z48	X49	Y49	Z49	X50	Y50	Z50	X51	Y51	Z51	X52	Y52	Z52	X53	Y53	Z53	X54	Y54	Z54	X55	Y55	Z55	X56	Y56	Z56	X57	Y57	Z57	X58	Y58	Z58	X59	Y59	Z59	X60	Y60	Z60	X61	Y61	Z61	X62	Y62	Z62	

172	0.855	-140.5346984863282	1774.233032226563	-1060.412475585938	-268.6848754882813	1745.080200195313	-1109.373291015625	-331.3627014160157	1705.767456054688	-982.4914550781252	-352.8244323730469	1575.635620117188	-1028.6787109375	-388.2111816406251	1258.168212890625	-1017.87109375	-226.1401367187501	1504.367065429688	-1036.890258789063	-308.0361022949219	1531.068603515625	-1206.495483398438	-305.8495788574219	1318.30712890625	-1281.197387695313	-263.3830566406251	1300.990234375	-1263.373168945313	-294.3530578613282	1250.367553710938	-1284.373901367188	-295.5374755859376	1186.478393554688	-1278.583984375	-324.3174743652344	1176.03173828125	-1218.367431640625	-97.92708587646487	989.1250000000002	-1213.11767578125	-137.5927886962891	960.6167602539065	-1271.893798828125	-42.64065170288087	914.2544555664065	-1221.510620117188	-267.9892578125001	1523.173095703125	-859.6811523437502	-300.1452941894532	1312.37158203125	-774.2387695312502	-260.5736999511719	1289.619873046875	-789.8252563476565	-295.0884704589844	1243.41845703125	-772.9602050781252	-285.7210388183594	1180.439819335938	-772.4886474609377	-319.2523803710938	1168.699951171875	-842.4343872070315	-114.9830551147461	951.744079589844	-831.850769042969	-165.5464935302735	931.563903808594	-778.252136230469	-72.09976959228517	871.9614868164065	-806.830749511719	-213.2734527587891	1079.777587890625	-1133.3310546875	-207.1887207031251	1081.40185546875	-902.3007812500002	-395.7214355468751	1124.658447265625	-1013.005615234375	-403.8934631347657	1095.886352539063	-1041.5966796875	-402.1609802246095	1095.10791015625	-985.3786621093752	-335.0072021484376	823.0871582031252	-1188.320556640625	-296.2240295410157	747.8510742187501	-1189.834716796875	-249.2586822509766	752.2629394531251	-1192.589721679688	-318.1440429687501	695.0256347656251	-1175.279296875	-302.2410278320313	562.1545410156251	-1160.413818359375	-300.2623291015626	548.0598754882814	-1028.447998046875	-270.8977661132813	339.1824645996094	-1114.53955078125	-343.3597106933594	300.4739685058594	-1148.608520507813	-300.0954589843751	293.1405639648438	-1137.513305664063	-290.9806518554688	215.2719879150391	-1100.284790039063	-355.4849548339844	127.8789291381836	-1104.470825195313	-319.2274475097657	144.2836303710938	-1026.900634765625	-413.649627685547	97.1690368652344	-1049.349487304688	-199.1958465576172	60.66766738891603	-1050.824340820313	-204.6120758056641	53.75397872924806	-1096.602416992188	-261.4754028320313	38.43230819702149	-1137.863647460938	-282.9830322265626	814.4873046875002	-836.0817871093752	-252.6274108886719	755.7162475585939	-837.4317626953127	-219.1425323486329	756.0798339843751	-841.9357910156252	-285.8284606933594	680.9519653320314	-854.7070312500002	-287.5457458496094	544.5216064453126	-866.5625610351565	-273.3431396484376	539.4837036132814	-999.3719482421877	-246.5187072753907	356.3959350585938	-890.7803344726565	-322.2364501953126	283.1749572753907	-873.572937011719	-276.8138732910157	275.9902648925782	-880.4597167968752	-261.1085510253907	229.8392486572266	-914.2050781250002	-319.8082885742188	121.0710372924805	-901.8142089843752	-295.0402832031251	135.6836853027344	-985.9818115234377	-378.5620422363282	87.69622802734376	-961.485046386719	-159.9379272460938	56.891170501709	-963.8792114257815	-166.5073852539063	55.94256973266603	-924.2716064453127	-211.7928924560547	34.60790252685548	-873.891052246094	nan	nan	nan	
173	0.86	-140.6452178955078	1774.289794921875	-1060.719970703125	-268.7881164550782	1744.942260742188	-1109.761962890625	-331.6341857910157	1705.711181640625	-982.868835449219	-352.9299316406251	1575.555908203125	-1029.044067382813	-388.3428344726564	1258.140258789063	-1018.1962890625	-226.2951354980469	1504.330200195313	-1037.174438476563	-308.1679077148438	1531.027099609375	-1206.710693359375	-305.8073120117188	1318.344116210938	-1281.473510742188	-263.3526916503907	1301.041748046875	-1263.639038085938	-294.3019409179688	1250.439697265625	-1284.669189453125	-295.3562927246094	1186.6025390625	-1278.923461914063	-324.0943908691407	1176.080200195313	-1218.647583007813	-97.9384689331055	988.9868774414065	-1213.767578125	-137.4941558837891	960.5947875976565	-1272.564819335938	-42.74780273437501	914.1929321289065	-1222.317626953125	-267.9567565917969	1523.192016601563	-860.0653076171877	-299.5491333007813	1312.391357421875	-774.6814575195315	-260.3088684082032	1289.523559570313	-790.3049926757815	-294.5662841796876	1243.259643554688	-773.333923339844	-285.2254638671876	1181.108032226563	-773.321472167969	-318.9816284179688	1168.580688476563	-842.8098144531252	-114.1985092163086	951.5188598632815	-833.139587402344	-164.6742858886719	931.6259765625002	-779.1836547851565	-71.3491897583008	871.7640380859377	-808.1734619140627	-213.2533264160157	1079.6455078125	-1133.598999023438	-207.2259063720704	1081.440307617188	-902.6275634765627	-395.5859680175782	1124.997680664063	-1013.243103027344	-403.8619995117189	1095.768188476563	-1041.895385742188	-402.2224426269532	1095.014892578125	-985.7261352539065	-335.0182800292969	823.0960083007815	-1188.452758789063	-296.0229187011719	747.7492675781251	-1189.9697265625	-249.6432189941407	752.5003662109376	-1192.81982421875	-317.8019714355469	694.8455810546876	-1175.393676757813	-301.7567138671876	562.0637817382814	-1160.479125976563	-300.6815185546876	548.0937500000001	-1028.216918945313	-270.5949401855469	339.3002014160157	-1114.664428710938	-343.2121276855469	300.4397583007813	-1148.632568359375	-299.9718017578126	292.7433471679688	-1137.567993164063	-290.9256896972657	215.2095642089844	-1100.29638671875	-355.4244995117188	127.8866653442383	-1104.46337890625	-319.2015686035157	144.2875061035157	-1026.876342773438	-413.6071777343751	97.04013824462893	-1049.33740234375	-199.1922149658204	60.65058517456056	-1050.802612304688	-204.5917205810547	53.77737426757814	-1096.599975585938	-261.5228271484376	38.4710807800293	-1137.865478515625	-282.9093933105469	814.5587158203127	-836.4516601562502	-252.5397949218751	755.4526367187501	-837.784118652344	-219.2179565429688	755.7210693359376	-843.2659301757815	-285.7688293457032	680.9814453125001	-854.9251708984377	-287.4461975097657	544.6374511718751	-866.7344360351565	-272.9085083007813	539.4975585937501	-999.5627441406252	-246.4351196289063	356.4604187011719	-890.9904785156252	-322.1734619140626	283.2701110839844	-873.6571044921877	-276.6910400390626	275.9551391601563	-880.5145263671877	-260.9920959472657	229.8400115966797	-914.4104003906252	-319.7438049316407	121.0208282470703	-901.8330688476565	-294.9167480468751	135.617416381836	-986.0461425781252	-378.5589599609376	87.69656372070314	-961.5322875976565	-159.9280853271485	56.89516448974611	-963.8519287109377	-166.4852905273438	55.9088592529297	-924.250427246094	-211.7995910644532	34.60402297973634	-873.9025878906252	nan	nan	nan	
174	0.865	-140.9749145507813	1774.494995117188	-1061.098876953125	-268.9352416992188	1744.849243164063	-1110.10546875	-331.9490051269532	1705.644165039063	-983.2608642578127	-353.0659179687501	1575.50048828125	-1029.310791015625	-388.4434204101564	1258.0615234375	-1018.47265625	-226.404037475586	1504.259033203125	-1037.417114257813	-308.2540588378907	1530.9970703125	-1206.93603515625	-305.7184448242188	1318.385986328125	-1281.709228515625	-263.2697753906251	1301.148315429688	-1263.921264648438	-294.2071228027344	1250.498046875	-1284.90771484375	-295.1236877441407	1186.610961914063	-1279.217041015625	-323.9409790039063	1176.091186523438	-1218.952270507813	-97.76364898681643	988.8228149414065	-1214.48046875	-137.6060638427735	960.6379394531252	-1273.220092773438	-42.82297134399415	914.0272216796877	-1223.183349609375	-267.9322509765626	1522.994140625	-860.4187011718752	-299.2192993164063	1312.301635742188	-775.0548095703127	-259.8027954101563	1289.189331054688	-790.781921386719	-293.7565002441407	1243.20849609375	-773.8384399414065	-284.8629455566407	1180.66162109375	-773.5787353515627	-318.5596313476563	1168.459106445313	-843.265075683594	-113.7914352416992	951.5290527343752	-834.476745605469	-163.5171508789063	931.9712524414065	-780.3044433593752	-70.94783782958986	871.6868896484377	-809.3140869140627	-213.2533721923829	1079.554443359375	-1133.901123046875	-207.2595367431641	1081.428344726563	-902.970153808594	-395.690887451172	1124.831665039063	-1013.622802734375	-404.0008544921876	1095.728515625	-1042.21484375	-402.333465576172	1094.947387695313	-986.0823974609377	-334.9261169433594	822.9797363281252	-1188.589111328125	-295.8243408203126	747.6695556640626	-1190.104858398438	-249.4855651855469	752.4384765625001	-1192.90478515625	-317.6242370605469	694.8377685546876	-1175.483276367188	-301.2846069335938	561.9248657226564	-1160.592529296875	-299.1219787597657	548.0894165039064	-1028.813598632813	-270.2174987792969	339.1444702148438	-1114.741577148438	-342.9660339355469	300.3427429199219	-1148.710815429688	-299.7992553710938	292.6249389648438	-1137.701782226563	-290.8267517089844	215.1006317138672	-1100.30126953125	-355.5280151367188	127.8510208129883	-1104.507568359375	-319.2314758300782	144.2630767822266	-1026.846069335938	-413.6628723144532	97.06397247314456	-1049.29638671875	-199.2821960449219	60.65893173217775	-1050.769653320313	-204.5619201660157	53.74530410766603	-1096.596069335938	-261.2728576660157	38.55440139770509	-1138.125732421875	-282.9395751953126	814.4766845703127	-836.7219238281252	-252.1987609863282	755.5266113281251	-838.2299804687502	-219.1325225830079	755.7732543945314	-843.6016235351565	-285.6893310546876	680.9963989257814	-855.1549072265627	-287.1121826171876	544.6774291992189	-866.8896484375002	-272.6957702636719	539.4606933593751	-999.821472167969	-246.1055908203126	356.2392272949219	-891.2258300781252	-322.0559387207032	283.2829284667969	-873.740661621094	-276.5397033691407	276.1215209960938	-880.5697021484377	-260.8434753417969	229.9613342285157	-914.5393676757815	-319.7409667968751	121.0157699584961	-901.8981933593752	-294.9834289550782	135.6319274902344	-986.1113891601565	-378.5687255859376	87.69333648681642	-961.578308105469	-159.8804931640625	56.88292694091798	-963.9302368164065	-166.5105133056641	55.87745666503908	-924.2891845703127	-211.792709350586	34.68622589111329	-873.9367675781252	nan	nan	nan	
175	0.87	-141.2295227050782	1774.67578125	-1061.306762695313	-269.1554565429688	1744.741333007813	-1110.568603515625	-332.1082763671876	1705.41162109375	-983.7105712890627	-353.1870422363282	1575.537231445313	-1029.584594726563	-388.6238403320314	1258.12158203125	-1018.711975097656	-226.5061340332032	1504.059204101563	-1037.631103515625	-308.3052062988282	1530.959838867188	-1207.118286132813	-305.7138977050782	1318.432983398438	-1281.938720703125	-263.1961669921876	1301.123901367188	-1264.2470703125	-294.1447448730469	1250.580444335938	-1285.21044921875	-295.0521850585938	1186.707397460938	-1279.507446289063	-323.8421020507813	1176.1708984375	-1219.300170898438	-97.7570495605469	988.4485473632815	-1215.087646484375	-137.6177825927735	960.6384277343752	-1273.986694335938	-42.7974967956543	914.4453125000002	-1224.236083984375	-267.8389282226563	1522.932250976563	-860.827819824219	-298.4413757324219	1311.9521484375	-775.5361938476565	-259.1522216796876	1289.2822265625	-790.9926757812502	-292.9342956542969	1243.04833984375	-774.396423339844	-283.9767456054688	1180.669189453125	-774.2966918945315	-318.3078918457032	1168.329711914063	-843.6740722656252	-113.3120727539063	951.8712158203127	-835.7322998046877	-163.0587463378907	932.1872558593752	-781.1433715820315	-70.49778747558595	871.565856933594	-810.536071777344	-213.3352661132813	1079.4775390625	-1134.209350585938	-207.039779663086	1081.677734375	-903.4227294921877	-395.7809143066407	1124.7880859375	-1013.976867675781	-404.1151733398439	1095.649658203125	-1042.563354492188	-402.4038085937501	1094.930053710938	-986.3967285156252	-334.7741394042969	822.8879394531252	-1188.7197265625	-295.7045898437501	747.6356201171876	-1190.23974609375	-249.3294372558594	752.3859252929689	-1193.0615234375	-317.3184204101563	694.7731323242189	-1175.640258789063	-300.7850952148438	561.8457641601564	-1160.646362304688	-298.5197448730469	548.0612182617189	-1028.837646484375	-270.1504821777344	339.6816711425782	-1114.98193359375	-342.7707519531251	300.3723144531251	-1148.717895507813	-299.5240478515626	292.6073913574219	-1137.754638671875	-290.5431518554688	215.0513610839844	-1100.30810546875	-355.4736022949219	127.8274154663086	-1104.3232421875	-319.1802368164063	144.2569580078125	-1026.861450195313	-413.6732788085939	97.05000305175784	-1049.268920898438	-199.2628479003907	60.6572608947754	-1050.778442382813	-204.1641082763672	53.33577346801759	-1096.3232421875	-261.5029296875001	38.45537948608399	-1137.865600585938	-282.8425292968751	814.3809814453127	-837.023864746094	-251.9964599609376	755.4063720703126	-839.3086547851565	-218.9483489990235	755.9993286132814	-842.9653320312502	-285.5875549316407	680.8754272460939	-855.368103027344	-286.7823791503907	544.7310791015626	-867.0738525390627	-272.5603942871094	539.4238891601564	-1000.121520996094	-245.7860870361329	356.0945129394532	-891.5028076171877	-321.7294311523438	283.3211975097657	-873.919372558594	-276.3910217285157	276.2732238769532	-880.7078247070315	-260.6630554199219	229.9515228271485	-914.6215820312502	-319.7085876464844	121.0815505981446	-901.9134521484377	-294.9378967285157	135.6348266601563	-986.2038574218752	-378.5680541992188	87.68589782714845	-961.5758056640627	-159.9775085449219	57.00662994384767	-963.9758911132815	-166.4964599609375	55.89865875244142	-924.2710571289065	-211.7879028320313	34.65367507934571	-873.9560546875002	nan	nan	nan	
